<svg width="225" height="198" viewBox="0 0 225 198" fill="none" xmlns="http://www.w3.org/2000/svg">
<path d="M178.522 125.763C178.53 134.946 176.606 144.029 172.874 152.431C169.141 160.833 163.682 168.367 156.847 174.552C154.946 176.274 152.947 177.886 150.86 179.382C148.182 181.301 145.363 183.017 142.427 184.517H142.396C141.77 184.844 141.134 185.154 140.493 185.455C140.2 185.598 139.913 185.73 139.615 185.863C137.758 186.708 135.853 187.467 133.9 188.14C132.361 188.649 130.781 189.159 129.186 189.577C119.983 192.008 110.363 192.458 100.97 190.896C99.8572 190.713 98.7593 190.504 97.6666 190.265L96.7432 190.056C93.9557 189.409 91.2138 188.582 88.5351 187.58C86.9789 186.999 85.4536 186.362 83.959 185.669C83.3793 185.399 82.7996 185.124 82.2302 184.838C81.8403 184.645 81.4556 184.446 81.0708 184.247C70.6326 178.803 61.8388 170.702 55.5899 160.772C49.3411 150.843 45.8618 139.442 45.5082 127.738C45.1546 116.034 47.9395 104.447 53.5777 94.1634C59.2159 83.8798 67.5048 75.2691 77.5957 69.2132C87.6865 63.1572 99.2167 59.8736 111.006 59.6985C122.794 59.5235 134.418 62.4633 144.687 68.2169C154.955 73.9705 163.5 82.3311 169.445 92.4427C175.39 102.554 178.523 114.054 178.522 125.763Z" fill="url(#paint0_linear_202_6)"/>
<path d="M129.432 130.542C133.669 134.873 146.012 151.727 146.012 151.727L138.43 162.767L131.612 140.834L129.432 130.542Z" fill="url(#paint1_linear_202_6)"/>
<path d="M142.396 184.553C141.77 184.879 141.134 185.19 140.492 185.491C140.2 185.633 139.913 185.766 139.615 185.898C137.758 186.744 135.853 187.503 133.9 188.176C132.361 188.685 130.781 189.195 129.186 189.612C119.983 192.044 110.363 192.494 100.97 190.932C99.8571 190.749 98.7593 190.54 97.6666 190.3C93.6651 193.041 89.9714 195.359 87.5244 196.414L87.7245 194.718L88.5555 187.62L90.4793 171.108L98.1026 163.786L80.963 165.106C80.963 165.106 82.7637 140.294 89.7919 135.188C96.8201 130.083 104.192 125.508 104.192 125.508C105.072 126.084 106.04 126.513 107.06 126.777C109.497 127.446 112.031 127.703 114.555 127.536C117.561 127.398 120.567 124.622 120.711 124.479C120.711 124.479 125.431 125.411 129.432 130.562C131.428 133.214 132.861 136.24 133.644 139.458C134.629 143.223 136.378 152.017 138.369 162.64C139.672 169.477 141.041 177.059 142.396 184.553Z" fill="url(#paint2_linear_202_6)"/>
<path d="M146.012 151.747L153.328 160.261L179.055 134.898L180.03 129.706L185.16 125.279L182.877 132.03V140.823C182.877 140.823 163.034 172.769 157.565 174.414C151.168 176.345 138.44 162.757 138.44 162.757L146.012 151.747Z" fill="url(#paint3_linear_202_6)"/>
<path d="M119.305 163.389L125.271 177.655L132.982 174.363L127.329 160.403L119.305 163.389Z" fill="#7E57C2"/>
<path d="M127.616 172.606C126.657 173.39 125.225 173.207 123.45 173.298C121.066 173.361 118.778 174.251 116.986 175.815C114.601 177.807 107.932 183.02 101.263 187.778C100.052 188.639 98.8413 189.49 97.6717 190.326C93.6702 193.067 89.9766 195.385 87.5295 196.439C86.8862 196.757 86.1915 196.958 85.4775 197.036C82.0506 197.122 81.317 189.989 81.1066 184.298C81.04 182.408 81.0246 180.681 80.9886 179.433C80.845 174.44 80.9886 165.167 80.9886 165.167L98.1283 163.842L96.3122 175.632L95.9941 177.716V177.731L101.124 175.846L101.283 175.79L119.495 169.07L120.752 166.915L121.552 168.952H121.629L129.427 167.934C129.427 167.934 129.56 171.021 127.616 172.606Z" fill="url(#paint4_linear_202_6)"/>
<path d="M123.681 98.2504C123.235 97.0378 122.85 96.2124 122.737 95.9678V95.9067C122.737 95.9067 122.342 96.8747 119.367 96.6404C116.391 96.406 115.406 94.9387 115.406 94.9387C115.406 94.9387 116.34 98.1179 112.795 99.4782C109.384 100.793 108.04 99.9419 107.947 99.8807C108.127 100.074 110.794 102.907 109.025 105.154C107.193 107.482 103.074 107.024 103.074 107.024V107.054C103.592 108.22 104.173 109.358 104.813 110.463C105.151 111.044 105.485 111.579 105.839 112.078V112.114C106.747 113.581 107.974 114.829 109.43 115.767C108.79 119.495 106.952 122.918 104.192 125.523C105.121 126.005 106.078 126.428 107.06 126.792C108.973 127.51 111.543 128.224 113.837 128.025C116.494 127.743 118.949 126.486 120.721 124.499L119.546 120.021L118.49 115.986C128.042 113.566 125.415 103.04 123.681 98.2504ZM117.956 116.133L118.125 116.093L118.397 116.016C118.001 116.186 117.583 116.3 117.156 116.353C117.376 116.297 117.602 116.235 117.838 116.164L117.956 116.133Z" fill="url(#paint5_linear_202_6)"/>
<path d="M129.432 95.7742C125.492 99.3712 123.789 98.3573 123.681 98.2605V98.2503C123.235 97.0378 122.85 96.2124 122.742 95.9678L122.717 95.9067C122.717 95.9067 122.317 96.8747 119.341 96.6404C116.366 96.406 115.386 94.9387 115.386 94.9387C115.386 94.9387 116.32 98.1179 112.775 99.4782C109.358 100.793 108.014 99.9419 107.927 99.8807C108.106 100.069 110.774 102.902 109.004 105.149C107.173 107.477 103.053 107.024 103.053 107.024V107.049C103.571 108.217 104.152 109.356 104.792 110.463C105.134 111.04 105.476 111.579 105.818 112.078V112.114C105.818 112.114 104.413 114.86 101.904 114.804C99.3954 114.748 99.339 112.256 99.339 112.256C99.339 112.256 97.564 115.435 92.0799 112.373C86.5958 109.311 90.2536 104.874 90.2536 104.874C90.2536 104.874 86.365 101.919 86.365 97.4912C86.365 93.0637 92.4185 89.696 92.4185 89.696C92.4185 89.696 90.2536 84.5552 93.9062 81.7224C97.5588 78.8897 103.048 80.8104 103.048 80.8104C103.048 80.8104 102.94 74.2329 108.532 74.3399C114.124 74.4469 115.391 77.8452 115.391 77.8452C115.391 77.8452 120.418 73.9833 125.395 77.621C130.371 81.2588 128.324 87.602 128.324 87.602C128.324 87.602 133.541 92.0295 129.432 95.7742Z" fill="url(#paint6_linear_202_6)"/>
<path opacity="0.15" d="M119.587 120.006C117.202 119.257 112.959 116.398 112.959 116.398C114.634 116.574 116.325 116.485 117.971 116.133L118.141 116.093L118.469 115.996H118.515L119.587 120.006Z" fill="black"/>
<path opacity="0.15" d="M100.416 148.547L98.1026 163.832L96.2865 175.622L92.0593 179.112L101.258 175.795C101.258 175.795 98.8721 169.029 100.416 148.547Z" fill="black"/>
<path opacity="0.15" d="M97.6562 190.3C98.749 190.54 99.8468 190.748 100.96 190.932C101.016 189.887 101.119 188.833 101.263 187.778L97.6562 190.3Z" fill="black"/>
<path d="M75.4225 0H47.992C44.2067 0 41.1382 3.04751 41.1382 6.80681V34.0493C41.1382 37.8086 44.2067 40.8561 47.992 40.8561H75.4225C79.2078 40.8561 82.2763 37.8086 82.2763 34.0493V6.80681C82.2763 3.04751 79.2078 0 75.4225 0Z" fill="#56CCF2"/>
<path d="M72 19H67.83L71.07 15.76L69.66 14.34L65 19H63V17L67.66 12.34L66.24 10.93L63 14.17V10H61V14.17L57.76 10.93L56.34 12.34L61 17V19H59L54.34 14.34L52.93 15.76L56.17 19H52V21H56.17L52.93 24.24L54.34 25.66L59 21H61V23L56.34 27.66L57.76 29.07L61 25.83V30H63V25.83L66.24 29.07L67.66 27.66L63 23V21H65L69.66 25.66L71.07 24.24L67.83 21H72V19Z" fill="white"/>
<path d="M217.284 103H189.854C186.069 103 183 106.048 183 109.807V137.049C183 140.809 186.069 143.856 189.854 143.856H217.284C221.07 143.856 224.138 140.809 224.138 137.049V109.807C224.138 106.048 221.07 103 217.284 103Z" fill="#F2C94C"/>
<path d="M213 120C213 115 209 111 204 111C199 111 195 115 195 120C195 123.1 196.6 125.9 199 127.5V130C199 131.3 199.8 132.4 201 132.8V133C201 134.7 202.3 136 204 136C205.7 136 207 134.7 207 133V132.8C208.2 132.4 209 131.3 209 130V127.5C211.4 125.9 213 123.1 213 120ZM197 120C197 116.1 200.1 113 204 113C207.9 113 211 116.1 211 120C211 123.5 208.4 126.4 205 126.9V124.4L206.7 122.7C207.1 122.3 207.1 121.7 206.7 121.3C206.3 120.9 205.7 120.9 205.3 121.3L204 122.6L202.7 121.3C202.3 120.9 201.7 120.9 201.3 121.3C200.9 121.7 200.9 122.3 201.3 122.7L203 124.4V126.9C199.6 126.4 197 123.5 197 120ZM204 134C203.4 134 203 133.6 203 133H205C205 133.6 204.6 134 204 134ZM207 130C207 130.6 206.6 131 206 131H202C201.4 131 201 130.6 201 130V128.5C201.9 128.8 202.9 129 204 129C205.1 129 206.1 128.8 207 128.5V130Z" fill="white"/>
<path d="M34.2844 103H6.85379C3.06855 103 0 106.048 0 109.807V137.049C0 140.809 3.06855 143.856 6.85379 143.856H34.2844C38.0696 143.856 41.1381 140.809 41.1381 137.049V109.807C41.1381 106.048 38.0696 103 34.2844 103Z" fill="#F58A8A"/>
<path d="M27 120H26V118C26 115.24 23.76 113 21 113C18.24 113 16 115.24 16 118V120H15C13.9 120 13 120.9 13 122V132C13 133.1 13.9 134 15 134H27C28.1 134 29 133.1 29 132V122C29 120.9 28.1 120 27 120ZM21 129C19.9 129 19 128.1 19 127C19 125.9 19.9 125 21 125C22.1 125 23 125.9 23 127C23 128.1 22.1 129 21 129ZM24.1 120H17.9V118C17.9 116.29 19.29 114.9 21 114.9C22.71 114.9 24.1 116.29 24.1 118V120Z" fill="white"/>
<path d="M172.284 0H144.854C141.069 0 138 3.04751 138 6.80681V34.0493C138 37.8086 141.069 40.8561 144.854 40.8561H172.284C176.07 40.8561 179.138 37.8086 179.138 34.0493V6.80681C179.138 3.04751 176.07 0 172.284 0Z" fill="#6FCF97"/>
<path d="M164.311 14.8964H147.98V25.1033H164.311V14.8964Z" fill="white"/>
<path d="M168.713 16.9276L165.108 18.4426V21.6002L168.713 23.1153H170.02V16.9276H168.713Z" fill="white"/>
<defs>
<linearGradient id="paint0_linear_202_6" x1="112.273" y1="66.8651" x2="110.029" y2="197.076" gradientUnits="userSpaceOnUse">
<stop stop-color="white" stop-opacity="0"/>
<stop offset="1" stop-color="#64B5F6" stop-opacity="0.6"/>
</linearGradient>
<linearGradient id="paint1_linear_202_6" x1="124.41" y1="126.165" x2="142.56" y2="158.279" gradientUnits="userSpaceOnUse">
<stop stop-color="#E57373"/>
<stop offset="1" stop-color="#AD1457"/>
</linearGradient>
<linearGradient id="paint2_linear_202_6" x1="28131.2" y1="39784.5" x2="26219.2" y2="49285.9" gradientUnits="userSpaceOnUse">
<stop stop-color="#E57373"/>
<stop offset="1" stop-color="#AD1457"/>
</linearGradient>
<linearGradient id="paint3_linear_202_6" x1="192.122" y1="137.94" x2="142.589" y2="166.833" gradientUnits="userSpaceOnUse">
<stop stop-color="#FFF8E1"/>
<stop offset="1" stop-color="#FFCC80"/>
</linearGradient>
<linearGradient id="paint4_linear_202_6" x1="21642.4" y1="22309.6" x2="18971.7" y2="20496.4" gradientUnits="userSpaceOnUse">
<stop stop-color="#FFF8E1"/>
<stop offset="1" stop-color="#FFCC80"/>
</linearGradient>
<linearGradient id="paint5_linear_202_6" x1="128.703" y1="103.439" x2="101.662" y2="114.652" gradientUnits="userSpaceOnUse">
<stop stop-color="#FFF8E1"/>
<stop offset="1" stop-color="#FFCC80"/>
</linearGradient>
<linearGradient id="paint6_linear_202_6" x1="122.486" y1="74.1463" x2="91.0531" y2="116.911" gradientUnits="userSpaceOnUse">
<stop stop-color="#FFB74D"/>
<stop offset="1" stop-color="#F4511E"/>
</linearGradient>
</defs>
</svg>
