<svg width="182" height="132" viewBox="0 0 182 132" fill="none" xmlns="http://www.w3.org/2000/svg">
<path d="M181.995 66C181.988 78.1292 178.67 90.0225 172.403 100.377C166.137 110.731 157.164 119.146 146.467 124.701C145.841 125.031 145.205 125.347 144.564 125.652C144.276 125.795 143.993 125.927 143.7 126.06C141.873 126.905 139.998 127.663 138.075 128.335C136.561 128.869 135.005 129.353 133.435 129.77C118.603 133.752 102.856 132.371 88.9297 125.866C88.3592 125.596 87.7886 125.322 87.2281 125.037C76.8012 119.779 67.956 111.809 61.6064 101.952C55.2569 92.0955 51.6334 80.7081 51.1102 68.967C50.587 57.2258 53.1831 45.5568 58.6303 35.1656C64.0775 24.7743 72.1783 16.0377 82.0955 9.85855C92.0128 3.67936 103.387 0.28168 115.043 0.0165558C126.698 -0.248568 138.213 2.62848 148.396 8.35045C158.58 14.0724 167.063 22.4318 172.97 32.5647C178.877 42.6977 181.992 54.2368 181.995 65.9898V66Z" fill="url(#paint0_linear_205_2)"/>
<path d="M90.8535 106.742L83.6228 95.3554C83.6228 95.3554 103.654 72.0116 105.658 70.6321C105.658 70.6321 95.5545 87.72 90.8535 106.742Z" fill="url(#paint1_linear_205_2)"/>
<path d="M83.6228 95.3554L69.9895 107.572L44.9092 95.3554L25.7216 96.4141C25.7216 96.4141 37.6734 100.486 41.0363 100.318L44.4043 100.15C44.4043 100.15 65.0007 120.17 69.737 121.697C74.4734 123.224 90.0305 111.252 90.0305 111.252L90.9343 106.778L83.6228 95.3554Z" fill="url(#paint2_linear_205_2)"/>
<path d="M121.241 67.8681C119.346 68.7928 117.309 69.385 115.217 69.6192C112.798 69.9857 109.122 68.6317 109.122 68.6317C111.899 66.4276 111.253 61.2305 111.253 61.2305L111.314 61.1999C114.278 60.9709 116.757 59.2758 118.489 57.6367C117.863 62.0856 121.241 67.8681 121.241 67.8681Z" fill="url(#paint3_linear_205_2)"/>
<path d="M121.241 51.3147V54.3688C120.451 55.5553 119.53 56.6467 118.494 57.6215V57.6215C116.762 59.2656 114.283 60.9607 111.319 61.1846C109.972 61.2884 108.62 61.0884 107.36 60.5993C99.281 57.5451 104.962 41.3836 104.962 41.3836C107.527 34.807 119.14 37.9884 119.14 37.9884C120.695 39.8565 120.993 45.074 120.933 45.5831C120.674 46.2982 120.335 46.9813 119.923 47.6192C119.923 47.6192 122.129 45.522 122.887 46.9167C123.644 48.3114 121.241 51.3147 121.241 51.3147Z" fill="url(#paint4_linear_205_2)"/>
<path d="M121.241 54.379V51.3249C121.241 51.3249 123.639 48.3471 122.882 46.9422C122.124 45.5373 119.918 47.6446 119.918 47.6446C120.33 47.0068 120.669 46.3237 120.928 45.6085C120.988 45.0995 120.736 40.1772 119.135 38.0139C119.135 38.0139 107.522 34.8325 104.956 41.4091C104.956 41.4091 101.634 40.559 98.7709 36.5734C94.0902 30.0528 99.6798 29.2536 105.219 30.5109C111.94 32.038 118.676 27.0292 126.376 32.1194C134.076 37.2096 127.174 48.7797 121.241 54.379Z" fill="#262F72"/>
<path d="M68.3838 25.9602H2.86805C1.28407 25.9602 0 27.2547 0 28.8515V89.751C0 91.3478 1.28407 92.6423 2.86805 92.6423H68.3838C69.9678 92.6423 71.2519 91.3478 71.2519 89.751V28.8515C71.2519 27.2547 69.9678 25.9602 68.3838 25.9602Z" box-shadow="rgba(0, 0, 0, 0.15)"  fill="white"/>
<path d="M10.9117 38.0444C10.7299 38.2519 10.4962 38.4065 10.2351 38.4924C9.92351 38.6014 9.59545 38.6548 9.26564 38.6502C8.92337 38.658 8.58521 38.5737 8.28606 38.4058C8.00265 38.2399 7.77562 37.9915 7.6347 37.6932C7.47423 37.3495 7.39307 36.9736 7.39737 36.5937V36.2985C7.38819 35.9121 7.46226 35.5283 7.61449 35.1735C7.74534 34.8726 7.96368 34.6188 8.24064 34.4456C8.57575 34.2627 8.95452 34.1768 9.33505 34.1975C9.71558 34.2181 10.083 34.3445 10.3967 34.5627C10.6979 34.8403 10.8792 35.2259 10.9016 35.6367H10.0382C10.0186 35.4292 9.92538 35.2358 9.77564 35.0921C9.6169 34.9694 9.41988 34.9081 9.22019 34.919C9.08557 34.9114 8.95129 34.9388 8.83017 34.9985C8.70905 35.0582 8.60514 35.1483 8.52842 35.2601C8.35123 35.5683 8.26865 35.9226 8.29112 36.2781V36.553C8.26922 36.9111 8.35929 37.2672 8.54864 37.571C8.63598 37.6871 8.75025 37.7799 8.88142 37.8411C9.0126 37.9024 9.15666 37.9302 9.30099 37.9223C9.55664 37.9448 9.81119 37.8683 10.0129 37.7085V36.9602H9.20505V36.3036H10.9016L10.9117 38.0444Z" fill="#64B5F6"/>
<path d="M62.8294 34.1911H16.4054C15.8393 34.1911 15.3804 34.6537 15.3804 35.2244V38.981C15.3804 39.5517 15.8393 40.0143 16.4054 40.0143H62.8294C63.3955 40.0143 63.8545 39.5517 63.8545 38.981V35.2244C63.8545 34.6537 63.3955 34.1911 62.8294 34.1911Z" fill="#E7EEF2"/>
<path d="M63.8545 43.3026H15.3804V44.3207H63.8545V43.3026Z" fill="#BBDEFB"/>
<path d="M63.8545 45.5932H15.3804V46.6113H63.8545V45.5932Z" fill="#E7E8E9"/>
<path d="M63.8545 47.8839H15.3804V48.9019H63.8545V47.8839Z" fill="#E7E8E9"/>
<path d="M63.8545 50.1745H15.3804V51.1925H63.8545V50.1745Z" fill="#E7E8E9"/>
<path d="M63.8545 54.4604H15.3804V55.4785H63.8545V54.4604Z" fill="#BBDEFB"/>
<path d="M63.8545 56.751H15.3804V57.7691H63.8545V56.751Z" fill="#E7E8E9"/>
<path d="M63.8545 59.0417H15.3804V60.0597H63.8545V59.0417Z" fill="#E7E8E9"/>
<path d="M63.8545 61.3322H15.3804V62.3503H63.8545V61.3322Z" fill="#E7E8E9"/>
<path d="M63.8545 65.491H15.3804V66.509H63.8545V65.491Z" fill="#BBDEFB"/>
<path d="M63.8545 67.7816H15.3804V68.7996H63.8545V67.7816Z" fill="#E7E8E9"/>
<path d="M63.8545 70.0722H15.3804V71.0903H63.8545V70.0722Z" fill="#E7E8E9"/>
<path d="M63.8545 72.3628H15.3804V73.3809H63.8545V72.3628Z" fill="#E7E8E9"/>
<path d="M63.8545 76.5215H15.3804V77.5396H63.8545V76.5215Z" fill="#BBDEFB"/>
<path d="M63.8545 78.8121H15.3804V79.8302H63.8545V78.8121Z" fill="#E7E8E9"/>
<path d="M63.8545 81.1027H15.3804V82.1208H63.8545V81.1027Z" fill="#E7E8E9"/>
<path d="M63.8545 83.3933H15.3804V84.4114H63.8545V83.3933Z" fill="#E7E8E9"/>
<path d="M138.707 92.4591C142.16 102.823 144.72 114.82 146.468 124.701C145.841 125.031 145.205 125.347 144.564 125.652C144.276 125.795 143.993 125.927 143.7 126.06C141.873 126.905 139.998 127.663 138.075 128.335C136.561 128.87 135.005 129.353 133.435 129.77C118.603 133.752 102.856 132.371 88.9298 125.866C88.3592 125.596 87.7886 125.322 87.2281 125.037C88.238 119.809 89.4398 113.665 90.8486 106.747C91.3602 104.24 91.8971 101.63 92.4593 98.9186C95.3526 85.0273 99.5032 77.4632 102.932 73.3656L102.967 73.3249C103.618 72.5459 104.324 71.8144 105.078 71.1361C105.099 71.1114 105.122 71.0892 105.148 71.0699C105.32 70.9172 105.492 70.7747 105.653 70.6372C107.719 68.9422 109.122 68.6317 109.122 68.6317L109.249 68.6775H109.319C110.416 69.1135 111.566 69.3994 112.738 69.5275H112.935H112.965C113.713 69.5998 114.466 69.6117 115.217 69.5632H115.262C117.346 69.4293 119.376 68.8386 121.211 67.8325V67.8325C123.361 68.5496 125.387 69.6026 127.214 70.9528C132.435 74.8163 142.953 88.9824 142.953 88.9824L138.707 92.4591Z" fill="url(#paint5_linear_205_2)"/>
<path d="M157.94 111.802C157.909 113.217 156.632 116.088 154.764 119.57C152.128 121.487 149.353 123.202 146.462 124.701C145.836 125.031 145.2 125.347 144.559 125.652C144.271 125.795 143.988 125.927 143.695 126.06C141.867 126.905 139.992 127.663 138.07 128.335L142.948 112.662L130.325 99.3003L138.702 92.4591L142.948 88.9926C142.948 88.9926 158.071 106.33 157.94 111.802Z" fill="url(#paint6_linear_205_2)"/>
<defs>
<linearGradient id="paint0_linear_205_2" x1="116.788" y1="7.16742" x2="114.512" y2="137.263" gradientUnits="userSpaceOnUse">
<stop stop-color="white" stop-opacity="0"/>
<stop offset="1" stop-color="#64B5F6" stop-opacity="0.6"/>
</linearGradient>
<linearGradient id="paint1_linear_205_2" x1="96.2311" y1="68.2092" x2="92.3833" y2="103.452" gradientUnits="userSpaceOnUse">
<stop stop-color="#42A5F5"/>
<stop offset="1" stop-color="#1565C0"/>
</linearGradient>
<linearGradient id="paint2_linear_205_2" x1="52.5338" y1="105.322" x2="94.4552" y2="110.833" gradientUnits="userSpaceOnUse">
<stop stop-color="#FFE082"/>
<stop offset="1" stop-color="#FFA726"/>
</linearGradient>
<linearGradient id="paint3_linear_205_2" x1="9407.78" y1="2544.52" x2="9410.77" y2="2315.66" gradientUnits="userSpaceOnUse">
<stop stop-color="#FFE082"/>
<stop offset="1" stop-color="#FFA726"/>
</linearGradient>
<linearGradient id="paint4_linear_205_2" x1="14977.3" y1="4075.82" x2="15770.5" y2="4075.82" gradientUnits="userSpaceOnUse">
<stop stop-color="#FFE082"/>
<stop offset="1" stop-color="#FFA726"/>
</linearGradient>
<linearGradient id="paint5_linear_205_2" x1="42938.6" y1="15103.6" x2="48837.7" y2="20773.6" gradientUnits="userSpaceOnUse">
<stop stop-color="#42A5F5"/>
<stop offset="1" stop-color="#1565C0"/>
</linearGradient>
<linearGradient id="paint6_linear_205_2" x1="22999.9" y1="12265.9" x2="22596.5" y2="9747.27" gradientUnits="userSpaceOnUse">
<stop stop-color="#FFE082"/>
<stop offset="1" stop-color="#FFA726"/>
</linearGradient>
</defs>
</svg>
