<svg width="156" height="132" viewBox="0 0 156 132" fill="none" xmlns="http://www.w3.org/2000/svg">
<path d="M156 66.5C155.993 78.5373 152.645 90.3405 146.32 100.616C139.996 110.892 130.941 119.244 120.147 124.756C119.661 125.008 119.172 125.251 118.679 125.483L118.577 125.534L118.226 125.701C117.935 125.842 117.65 125.973 117.354 126.105C115.51 126.943 113.617 127.696 111.678 128.363C110.577 128.743 109.464 129.095 108.34 129.419L106.995 129.787C92.0267 133.739 76.1354 132.368 62.081 125.913C61.5052 125.645 60.9294 125.372 60.3638 125.089L59.3446 124.584C49.2575 119.344 40.7007 111.618 34.498 102.15C33.8457 101.163 33.2241 100.153 32.633 99.1186C32.1064 98.2194 31.5968 97.3085 31.1042 96.3857C26.3168 87.1395 23.8272 76.8931 23.8428 66.5C23.8428 65.2741 23.8768 64.055 23.9448 62.8426C24.9001 45.8104 32.5204 29.8196 45.1848 18.2713C57.8493 6.72297 74.5587 0.528265 91.7592 1.00471C108.96 1.48115 125.294 8.59114 137.288 20.8225C149.283 33.0539 155.99 49.4415 155.985 66.5H156Z" fill="url(#paint0_linear_208_30)"/>
<path d="M76.9452 64.1712C76.9452 64.1712 62.1676 57.2252 60.8835 47.6674C59.5994 38.1096 60.5013 28.9762 67.8646 26.4201C67.8646 26.4201 72.5221 11.6995 89.0322 17.615C105.542 23.5305 102.938 41.2922 111.963 43.4189C120.987 45.5457 137.839 36.5891 141.054 47.5158C144.27 58.4426 133.696 57.7758 126.669 67.0507C119.642 76.3255 130.496 81.1954 128.509 87.5807C126.521 93.966 119.015 98.3559 119.015 98.3559L76.9452 64.1712Z" fill="url(#paint1_linear_208_30)"/>
<path d="M56.7102 85.1357L60.8836 96.3857H61.3371L67.8647 67.0507C63.7423 70.6323 56.7102 85.1357 56.7102 85.1357Z" fill="url(#paint2_linear_208_30)"/>
<path d="M49.3825 100.654L46.7378 101.973C43.4561 103.923 38.5541 103.367 38.5541 103.367C41.2038 106.322 56.1241 109.667 60.3178 109.581L61.0924 99.1136H51.7978L49.3825 100.654Z" fill="url(#paint3_linear_208_30)"/>
<path d="M118.679 125.468L118.577 125.519L118.225 125.685C117.935 125.827 117.65 125.958 117.354 126.09C115.509 126.928 113.617 127.681 111.678 128.348C110.577 128.728 109.464 129.08 108.34 129.403L106.995 129.772C92.0267 133.724 76.1353 132.353 62.081 125.898C61.5052 125.63 60.9294 125.357 60.3637 125.074L59.3446 124.569C59.4873 120.235 59.7064 115.047 60.0274 109.576C60.2313 106.156 60.4809 102.625 60.7765 99.1186C60.8529 98.2043 60.9345 97.295 61.016 96.3857C62.2186 83.4635 64.1448 71.4809 67.2328 67.672L67.2786 67.6215C67.6707 67.0865 68.2238 66.6886 68.8583 66.4848C73.317 65.4341 76.4611 65.0805 76.9554 64.1712C77.4496 63.2619 76.9554 61.4736 76.9554 61.4736L77.842 61.3523C79.1312 61.1604 81.6332 60.7562 84.0027 60.15C84.0177 60.1547 84.0337 60.1547 84.0486 60.15C86.1429 59.6095 88.1252 58.9124 89.0933 58.0738L91.0807 63.3124C91.0807 63.3124 106.026 61.4382 111.861 67.0708C111.897 67.0971 111.929 67.1276 111.958 67.1618C112.019 67.2169 112.077 67.2759 112.131 67.3386C112.478 67.7025 112.787 68.1002 113.053 68.5257C114.954 71.5567 116.299 83.7211 117.232 96.9161C117.446 99.9471 117.639 103.079 117.808 106.146C118.195 113.228 118.485 120.088 118.679 125.468Z" fill="url(#paint4_linear_208_30)"/>
<path opacity="0.15" d="M118.577 125.534L118.226 125.701C117.935 125.842 117.65 125.973 117.354 126.105C115.509 126.943 113.617 127.696 111.678 128.363C110.577 128.743 109.464 129.095 108.34 129.419C101.456 122.149 98.7242 112.713 98.7242 112.713L117.797 106.146L118.577 125.534Z" fill="black"/>
<path d="M111.856 67.0507C118.761 73.7694 120.264 87.8737 118.99 98.371C117.716 108.868 115.352 118.699 110.439 118.396C105.527 118.093 88.5277 106.403 81.9594 100.028L85.7964 92.7283L99.6771 98.462V83.1807L111.856 67.0507Z" fill="url(#paint5_linear_208_30)"/>
<path d="M111.856 67.0507C118.761 73.7694 120.264 87.8737 118.99 98.371C117.716 108.868 115.352 118.699 110.439 118.396C105.527 118.093 88.5277 106.403 81.9594 100.028L85.7964 92.7283L99.6771 98.462V83.1807L111.856 67.0507Z" fill="url(#paint6_linear_208_30)"/>
<path d="M76.1451 96.3857H12.4539V99.1186H76.1451V96.3857Z" fill="url(#paint7_linear_208_30)"/>
<path d="M48.4347 62.8426H0L12.4539 96.3857H60.8835L48.4347 62.8426Z" fill="url(#paint8_linear_208_30)"/>
<path d="M26.9971 99.1187C26.9971 99.1187 35.354 103.266 40.6638 103.367C45.9735 103.468 51.803 99.1187 51.803 99.1187H26.9971Z" fill="url(#paint9_linear_208_30)"/>
<path d="M85.7964 92.7283C85.7964 92.7283 78.4484 89.0507 75.284 88.6465C72.1196 88.2424 62.295 96.3857 62.295 96.3857H76.1554L81.9747 100.028L85.7964 92.7283Z" fill="url(#paint10_linear_208_30)"/>
<path d="M88.4717 49.789C88.5081 52.5552 88.7123 55.3167 89.0832 58.0586C85.7965 59.8924 81.9492 60.8775 77.8319 61.3574L77.5924 58.0586L77.4497 56.038V55.9723C76.656 55.9546 75.8735 55.783 75.1464 55.4671C70.173 53.3404 69.1029 42.944 69.1029 42.944C71.0953 42.8632 73.689 39.3018 73.689 39.3018C75.1413 41.5043 81.8779 45.7578 85.7863 44.6161C89.6947 43.4744 89.3889 40.7415 89.3889 40.7415C90.0958 41.037 90.7072 41.5193 91.1565 42.1357C91.6058 42.7522 91.8757 43.4791 91.9368 44.2372C92.1457 46.9045 88.4717 49.789 88.4717 49.789Z" fill="url(#paint11_linear_208_30)"/>
<path opacity="0.15" d="M85.1339 52.7241C84.2116 54.2699 80.0382 56.73 77.5974 58.0687L77.4547 56.0481C77.6076 56.0481 77.7554 55.9975 77.898 55.9672C79.8907 55.6176 81.8034 54.9142 83.5441 53.891C83.5649 53.8829 83.5839 53.8709 83.6001 53.8556C84.1232 53.5491 84.6133 53.1902 85.0626 52.7847L85.1339 52.7241Z" fill="black"/>
<path opacity="0.15" d="M93.9496 96.1028L104.763 100.488L99.667 96.8454V83.2059C99.667 83.2059 98.072 95.0571 93.9496 96.1028Z" fill="black"/>
<defs>
<linearGradient id="paint0_linear_208_30" x1="90.1926" y1="8.09361" x2="87.9708" y2="137.225" gradientUnits="userSpaceOnUse">
<stop stop-color="white" stop-opacity="0"/>
<stop offset="1" stop-color="#64B5F6" stop-opacity="0.6"/>
</linearGradient>
<linearGradient id="paint1_linear_208_30" x1="60.3994" y1="57.2807" x2="141.656" y2="57.2807" gradientUnits="userSpaceOnUse">
<stop stop-color="#EF9A9A"/>
<stop offset="1" stop-color="#D81B60"/>
</linearGradient>
<linearGradient id="paint2_linear_208_30" x1="61.6836" y1="82.8826" x2="59.2744" y2="110.514" gradientUnits="userSpaceOnUse">
<stop stop-color="#7E57C2"/>
<stop offset="1" stop-color="#4527A0"/>
</linearGradient>
<linearGradient id="paint3_linear_208_30" x1="6798.02" y1="2527.43" x2="6774.49" y2="3103.43" gradientUnits="userSpaceOnUse">
<stop stop-color="#7E57C2"/>
<stop offset="1" stop-color="#4527A0"/>
</linearGradient>
<linearGradient id="paint4_linear_208_30" x1="20326.2" y1="14858" x2="24453.7" y2="22492.9" gradientUnits="userSpaceOnUse">
<stop stop-color="#7E57C2"/>
<stop offset="1" stop-color="#4527A0"/>
</linearGradient>
<linearGradient id="paint5_linear_208_30" x1="13945.4" y1="9770.53" x2="17609.5" y2="15926.1" gradientUnits="userSpaceOnUse">
<stop stop-color="#7E57C2"/>
<stop offset="1" stop-color="#4527A0"/>
</linearGradient>
<linearGradient id="paint6_linear_208_30" x1="103.759" y1="72.7489" x2="98.0382" y2="119.812" gradientUnits="userSpaceOnUse">
<stop offset="0.14" stop-color="#7E57C2" stop-opacity="0"/>
<stop offset="0.26" stop-color="#724DBB" stop-opacity="0.21"/>
<stop offset="0.48" stop-color="#5F3DAF" stop-opacity="0.55"/>
<stop offset="0.66" stop-color="#5131A7" stop-opacity="0.79"/>
<stop offset="0.81" stop-color="#482AA2" stop-opacity="0.94"/>
<stop offset="0.91" stop-color="#4527A0"/>
</linearGradient>
<linearGradient id="paint7_linear_208_30" x1="12.4539" y1="97.7496" x2="76.1451" y2="97.7496" gradientUnits="userSpaceOnUse">
<stop stop-color="#D2D4D5"/>
<stop offset="1" stop-color="#AAACAE"/>
</linearGradient>
<linearGradient id="paint8_linear_208_30" x1="522.989" y1="4198.71" x2="4127.02" y2="8332.05" gradientUnits="userSpaceOnUse">
<stop stop-color="#D2D4D5"/>
<stop offset="1" stop-color="#AAACAE"/>
</linearGradient>
<linearGradient id="paint9_linear_208_30" x1="28.5767" y1="94.557" x2="48.884" y2="103.338" gradientUnits="userSpaceOnUse">
<stop stop-color="#FFF8E1"/>
<stop offset="1" stop-color="#FFCC80"/>
</linearGradient>
<linearGradient id="paint10_linear_208_30" x1="7860.06" y1="2941.73" x2="8378.29" y2="3509.97" gradientUnits="userSpaceOnUse">
<stop stop-color="#FFF8E1"/>
<stop offset="1" stop-color="#FFCC80"/>
</linearGradient>
<linearGradient id="paint11_linear_208_30" x1="8029.47" y1="3227.22" x2="8484.41" y2="4088.69" gradientUnits="userSpaceOnUse">
<stop stop-color="#FFF8E1"/>
<stop offset="1" stop-color="#FFCC80"/>
</linearGradient>
</defs>
</svg>
