<svg width="101" height="20" viewBox="0 0 101 20" fill="none" xmlns="http://www.w3.org/2000/svg">
<g opacity="0.8">
<path d="M92 4L90.94 5.06L95.13 9.25H86V10.75H95.13L90.94 14.94L92 16L98 10L92 4Z" fill="#356EAD"/>
<path d="M10.48 12.528C11.616 11.392 12.176 10.016 12.176 8.4C12.176 6.784 11.616 5.408 10.48 4.288C9.36 3.152 7.984 2.592 6.368 2.592C4.752 2.592 3.376 3.152 2.24 4.288C1.12 5.408 0.56 6.784 0.56 8.4C0.56 10.016 1.12 11.392 2.24 12.528C3.376 13.648 4.752 14.208 6.368 14.208C7.984 14.208 9.36 13.648 10.48 12.528ZM3.536 11.28C2.784 10.512 2.4 9.552 2.4 8.4C2.4 7.248 2.784 6.288 3.536 5.536C4.304 4.768 5.248 4.384 6.368 4.384C7.488 4.384 8.432 4.768 9.184 5.536C9.952 6.288 10.336 7.248 10.336 8.4C10.336 9.552 9.952 10.512 9.184 11.28C8.432 12.032 7.488 12.416 6.368 12.416C5.248 12.416 4.304 12.032 3.536 11.28ZM16.1104 14V2.32H14.3824V14H16.1104ZM25.0928 7.136C24.4368 6.24 23.5088 5.792 22.2928 5.792C21.1888 5.792 20.2608 6.192 19.4768 7.008C18.6928 7.824 18.3088 8.816 18.3088 10C18.3088 11.168 18.6928 12.176 19.4768 12.992C20.2608 13.808 21.1888 14.208 22.2928 14.208C23.5088 14.208 24.4368 13.76 25.0928 12.848V14H26.8208V2.8H25.0928V7.136ZM20.7568 11.84C20.2768 11.344 20.0368 10.736 20.0368 10C20.0368 9.264 20.2768 8.656 20.7568 8.176C21.2368 7.68 21.8448 7.44 22.5648 7.44C23.2848 7.44 23.8928 7.68 24.3728 8.176C24.8528 8.656 25.0928 9.264 25.0928 10C25.0928 10.736 24.8528 11.344 24.3728 11.84C23.8928 12.32 23.2848 12.56 22.5648 12.56C21.8448 12.56 21.2368 12.32 20.7568 11.84ZM34.2269 2.8V14H36.0669V10.16H38.3549C39.4109 10.16 40.2909 9.808 40.9949 9.104C41.7149 8.384 42.0669 7.52 42.0669 6.48C42.0669 5.44 41.7149 4.56 40.9949 3.856C40.2909 3.152 39.4109 2.8 38.3549 2.8H34.2269ZM36.0669 8.432V4.528H38.3549C39.4429 4.528 40.2269 5.344 40.2269 6.48C40.2269 7.616 39.4429 8.432 38.3549 8.432H36.0669ZM47.4059 14.208C48.5899 14.208 49.5819 13.808 50.3979 12.992C51.2139 12.176 51.6299 11.184 51.6299 10C51.6299 8.816 51.2139 7.824 50.3979 7.008C49.5819 6.192 48.5899 5.792 47.4059 5.792C46.2379 5.792 45.2299 6.192 44.4139 7.008C43.5979 7.824 43.1819 8.816 43.1819 10C43.1819 11.184 43.5979 12.176 44.4139 12.992C45.2299 13.808 46.2379 14.208 47.4059 14.208ZM45.6299 11.808C45.1499 11.328 44.9099 10.72 44.9099 10C44.9099 9.28 45.1499 8.672 45.6299 8.192C46.1099 7.712 46.7019 7.472 47.4059 7.472C48.1099 7.472 48.7019 7.712 49.1819 8.192C49.6619 8.672 49.9019 9.28 49.9019 10C49.9019 10.72 49.6619 11.328 49.1819 11.808C48.7019 12.288 48.1099 12.528 47.4059 12.528C46.7019 12.528 46.1099 12.288 45.6299 11.808ZM55.2281 8.208C55.2281 7.648 55.7401 7.36 56.3961 7.36C57.1161 7.36 57.6281 7.664 57.9001 8.272L59.3561 7.456C58.7961 6.416 57.7241 5.792 56.3961 5.792C55.5641 5.792 54.8601 6.016 54.3001 6.464C53.7401 6.912 53.4681 7.504 53.4681 8.24C53.4361 9.92 55.0521 10.4 56.2521 10.704C57.1001 10.912 57.7721 11.216 57.7721 11.728C57.7721 12.32 57.3241 12.624 56.4121 12.624C55.5001 12.624 54.9081 12.24 54.6361 11.472L53.1481 12.336C53.6601 13.504 54.8281 14.208 56.4121 14.208C57.3081 14.208 58.0441 13.984 58.6361 13.552C59.2281 13.12 59.5321 12.512 59.5321 11.744C59.5641 10.032 57.9641 9.52 56.7321 9.248C55.9001 9.008 55.2281 8.736 55.2281 8.208ZM65.8426 6H63.8586V3.76L62.1306 4.272V6H60.6586V7.664H62.1306V11.504C62.1306 13.6 63.2026 14.32 65.8426 14V12.448C64.5306 12.512 63.8586 12.528 63.8586 11.504V7.664H65.8426V6Z" fill="#356EAD"/>
</g>
</svg>
