<svg width="107" height="20" viewBox="0 0 107 20" fill="none" xmlns="http://www.w3.org/2000/svg">
<g opacity="0.8">
<path d="M41.84 10.4L36.56 2.8H35.12V14H36.96V6.4L42.24 14H43.68V2.8H41.84V10.4ZM54.1729 10.736C54.2209 10.432 54.2369 10.192 54.2369 10.016C54.2369 8.848 53.8529 7.84 53.1009 7.024C52.3489 6.208 51.3889 5.792 50.2209 5.792C48.9889 5.792 47.9649 6.192 47.1809 7.008C46.3969 7.808 45.9969 8.8 45.9969 10C45.9969 11.216 46.3969 12.224 47.1969 13.024C47.9969 13.808 49.0529 14.208 50.3489 14.208C51.9009 14.208 53.0689 13.632 53.8529 12.464L52.4289 11.632C51.9649 12.288 51.2769 12.624 50.3649 12.624C49.0369 12.624 48.0609 11.952 47.8049 10.736H54.1729ZM47.7889 9.328C48.0289 8.112 48.9249 7.36 50.2049 7.36C51.3409 7.36 52.2529 8.032 52.4929 9.328H47.7889ZM63.7329 11.52L62.0689 6H60.4209L58.7409 11.52L57.1889 6H55.3649L57.8769 14H59.5729L61.2529 8.608L62.9169 14H64.6129L67.1249 6H65.3009L63.7329 11.52ZM73.7894 2.8V14H75.6294V10.16H77.9174C78.9734 10.16 79.8534 9.808 80.5574 9.104C81.2774 8.384 81.6294 7.52 81.6294 6.48C81.6294 5.44 81.2774 4.56 80.5574 3.856C79.8534 3.152 78.9734 2.8 77.9174 2.8H73.7894ZM75.6294 8.432V4.528H77.9174C79.0054 4.528 79.7894 5.344 79.7894 6.48C79.7894 7.616 79.0054 8.432 77.9174 8.432H75.6294ZM86.9684 14.208C88.1524 14.208 89.1444 13.808 89.9604 12.992C90.7764 12.176 91.1924 11.184 91.1924 10C91.1924 8.816 90.7764 7.824 89.9604 7.008C89.1444 6.192 88.1524 5.792 86.9684 5.792C85.8004 5.792 84.7924 6.192 83.9764 7.008C83.1604 7.824 82.7444 8.816 82.7444 10C82.7444 11.184 83.1604 12.176 83.9764 12.992C84.7924 13.808 85.8004 14.208 86.9684 14.208ZM85.1924 11.808C84.7124 11.328 84.4724 10.72 84.4724 10C84.4724 9.28 84.7124 8.672 85.1924 8.192C85.6724 7.712 86.2644 7.472 86.9684 7.472C87.6724 7.472 88.2644 7.712 88.7444 8.192C89.2244 8.672 89.4644 9.28 89.4644 10C89.4644 10.72 89.2244 11.328 88.7444 11.808C88.2644 12.288 87.6724 12.528 86.9684 12.528C86.2644 12.528 85.6724 12.288 85.1924 11.808ZM94.7906 8.208C94.7906 7.648 95.3026 7.36 95.9586 7.36C96.6786 7.36 97.1906 7.664 97.4626 8.272L98.9186 7.456C98.3586 6.416 97.2866 5.792 95.9586 5.792C95.1266 5.792 94.4226 6.016 93.8626 6.464C93.3026 6.912 93.0306 7.504 93.0306 8.24C92.9986 9.92 94.6146 10.4 95.8146 10.704C96.6626 10.912 97.3346 11.216 97.3346 11.728C97.3346 12.32 96.8866 12.624 95.9746 12.624C95.0626 12.624 94.4706 12.24 94.1986 11.472L92.7106 12.336C93.2226 13.504 94.3906 14.208 95.9746 14.208C96.8706 14.208 97.6066 13.984 98.1986 13.552C98.7906 13.12 99.0946 12.512 99.0946 11.744C99.1266 10.032 97.5266 9.52 96.2946 9.248C95.4626 9.008 94.7906 8.736 94.7906 8.208ZM105.405 6H103.421V3.76L101.693 4.272V6H100.221V7.664H101.693V11.504C101.693 13.6 102.765 14.32 105.405 14V12.448C104.093 12.512 103.421 12.528 103.421 11.504V7.664H105.405V6Z" fill="#356EAD"/>
<path d="M15 9.25H5.87L10.06 5.06L9 4L3 10L9 16L10.06 14.94L5.87 10.75H15V9.25Z" fill="#356EAD"/>
</g>
</svg>
