<svg width="220" height="56" viewBox="0 0 220 56" fill="none" xmlns="http://www.w3.org/2000/svg">
<rect width="220" height="56" rx="10" fill="#5A98D0"/>
<path d="M77.4653 20.8H76.3453V32H82.5853V30.944H77.4653V20.8ZM87.9588 23.808C86.7268 23.808 85.7348 24.208 84.9508 25.008C84.1668 25.808 83.7828 26.8 83.7828 28C83.7828 29.216 84.1828 30.224 84.9668 31.008C85.7508 31.792 86.7748 32.192 88.0388 32.192C89.5908 32.192 90.8548 31.488 91.5588 30.352L90.6308 29.808C90.1828 30.624 89.2708 31.168 88.0548 31.168C86.3428 31.168 85.0788 30.144 84.8708 28.528H91.8948C91.9108 28.32 91.9268 28.144 91.9268 28.032C91.9268 26.896 91.5588 25.904 90.8228 25.072C90.1028 24.224 89.1428 23.808 87.9588 23.808ZM87.9588 24.832C88.6788 24.832 89.3188 25.072 89.8628 25.536C90.4068 26 90.7268 26.656 90.8388 27.504H84.8708C85.0788 25.92 86.2948 24.832 87.9588 24.832ZM98.2522 24H95.9482V21.76L94.8922 22.08V24H93.2122V25.024H94.8922V29.872C94.8922 31.728 96.0122 32.336 98.2522 32V31.072C96.7162 31.136 95.9482 31.248 95.9482 29.872V25.024H98.2522V24ZM101.288 20.8L100.648 24.4H101.608L102.568 20.8H101.288ZM104.843 26.096C104.843 25.28 105.611 24.832 106.523 24.832C107.499 24.832 108.139 25.2 108.443 25.952L109.323 25.44C108.859 24.432 107.819 23.808 106.523 23.808C105.739 23.808 105.083 24.032 104.555 24.464C104.043 24.896 103.787 25.44 103.787 26.096C103.787 27.824 105.467 28.192 106.811 28.528C107.723 28.768 108.459 29.168 108.459 29.888C108.459 30.768 107.659 31.168 106.619 31.168C105.547 31.168 104.731 30.656 104.427 29.824L103.531 30.352C103.963 31.44 105.083 32.192 106.619 32.192C107.467 32.192 108.171 31.984 108.699 31.552C109.243 31.12 109.515 30.576 109.515 29.888C109.515 28.16 107.835 27.792 106.491 27.456C105.579 27.216 104.843 26.816 104.843 26.096ZM115.757 20.8V21.856H119.197V32H120.317V21.856H123.757V20.8H115.757ZM131.28 25.568C130.544 24.4 129.472 23.808 128.048 23.808C126.912 23.808 125.936 24.208 125.12 25.024C124.32 25.84 123.92 26.832 123.92 28C123.92 29.168 124.32 30.16 125.12 30.976C125.936 31.792 126.912 32.192 128.048 32.192C129.472 32.192 130.544 31.6 131.28 30.432V32H132.336V24H131.28V25.568ZM125.888 30.256C125.28 29.632 124.976 28.88 124.976 28C124.976 27.12 125.28 26.368 125.888 25.76C126.496 25.136 127.248 24.832 128.128 24.832C129.008 24.832 129.76 25.136 130.368 25.76C130.976 26.368 131.28 27.12 131.28 28C131.28 28.88 130.976 29.632 130.368 30.256C129.76 30.864 129.008 31.168 128.128 31.168C127.248 31.168 126.496 30.864 125.888 30.256ZM136.268 32V20.32H135.212V32H136.268ZM141.324 27.84L145.452 24H144.012L140.204 27.536V20.8H139.148V32H140.204V28.144L144.204 32H145.612L141.324 27.84Z" fill="white"/>
</svg>
