<svg width="220" height="56" viewBox="0 0 220 56" fill="none" xmlns="http://www.w3.org/2000/svg">
<rect width="220" height="56" rx="10" fill="#5A98D0"/>
<path d="M53.2653 32.192C54.4013 32.192 55.3133 31.904 56.0013 31.344C56.6893 30.768 57.0413 30 57.0413 29.056C57.0413 28.48 56.8493 27.952 56.6413 27.616C56.4493 27.248 55.8893 26.864 55.5693 26.672C55.4093 26.56 55.1533 26.448 54.8173 26.32C54.4813 26.176 54.2253 26.08 54.0493 26.032L53.1853 25.728C52.3053 25.44 51.6653 25.152 51.2813 24.88C50.8973 24.608 50.7053 24.192 50.7053 23.632C50.7053 22.416 51.6333 21.696 53.0253 21.696C54.3533 21.696 55.2653 22.32 55.7773 23.552L56.7213 23.024C56.0973 21.616 54.7693 20.608 53.0253 20.608C52.0493 20.608 51.2333 20.88 50.5773 21.44C49.9213 21.984 49.5853 22.736 49.5853 23.68C49.5853 24.656 50.0173 25.392 50.8653 25.904C51.2333 26.144 52.0013 26.448 53.1693 26.832C54.1453 27.152 54.8493 27.456 55.2813 27.76C55.7133 28.064 55.9213 28.496 55.9213 29.088C55.9213 30.304 54.9453 31.104 53.2813 31.104C51.5693 31.104 50.4653 30.288 50.0653 28.896L49.1053 29.456C49.6813 31.168 51.2173 32.192 53.2653 32.192ZM63.2963 23.808C62.0643 23.808 61.0723 24.208 60.2883 25.008C59.5043 25.808 59.1203 26.8 59.1203 28C59.1203 29.216 59.5203 30.224 60.3043 31.008C61.0883 31.792 62.1123 32.192 63.3763 32.192C64.9283 32.192 66.1923 31.488 66.8963 30.352L65.9683 29.808C65.5203 30.624 64.6083 31.168 63.3923 31.168C61.6803 31.168 60.4163 30.144 60.2083 28.528H67.2323C67.2483 28.32 67.2643 28.144 67.2643 28.032C67.2643 26.896 66.8963 25.904 66.1603 25.072C65.4403 24.224 64.4803 23.808 63.2963 23.808ZM63.2963 24.832C64.0163 24.832 64.6563 25.072 65.2003 25.536C65.7443 26 66.0643 26.656 66.1763 27.504H60.2083C60.4163 25.92 61.6323 24.832 63.2963 24.832ZM73.2801 23.808C72.0481 23.808 71.0561 24.208 70.2721 25.008C69.4881 25.808 69.1041 26.8 69.1041 28C69.1041 29.216 69.5041 30.224 70.2881 31.008C71.0721 31.792 72.0961 32.192 73.3601 32.192C74.9121 32.192 76.1761 31.488 76.8801 30.352L75.9521 29.808C75.5041 30.624 74.5921 31.168 73.3761 31.168C71.6641 31.168 70.4001 30.144 70.1921 28.528H77.2161C77.2321 28.32 77.2481 28.144 77.2481 28.032C77.2481 26.896 76.8801 25.904 76.1441 25.072C75.4241 24.224 74.4641 23.808 73.2801 23.808ZM73.2801 24.832C74.0001 24.832 74.6401 25.072 75.1841 25.536C75.7281 26 76.0481 26.656 76.1601 27.504H70.1921C70.4001 25.92 71.6161 24.832 73.2801 24.832ZM93.6318 30.512C94.7518 29.376 95.3118 28.016 95.3118 26.4C95.3118 24.784 94.7518 23.424 93.6318 22.304C92.5118 21.168 91.1358 20.608 89.5198 20.608C87.9038 20.608 86.5278 21.168 85.4078 22.304C84.2878 23.424 83.7278 24.784 83.7278 26.4C83.7278 28.016 84.2878 29.376 85.4078 30.512C86.5278 31.632 87.9038 32.192 89.5198 32.192C91.1358 32.192 92.5118 31.632 93.6318 30.512ZM86.1918 29.744C85.2958 28.832 84.8478 27.712 84.8478 26.4C84.8478 25.088 85.2958 23.984 86.1918 23.072C87.0878 22.16 88.1918 21.696 89.5198 21.696C90.8478 21.696 91.9518 22.16 92.8478 23.072C93.7438 23.984 94.1918 25.088 94.1918 26.4C94.1918 27.712 93.7438 28.832 92.8478 29.744C91.9518 30.656 90.8478 31.104 89.5198 31.104C88.1918 31.104 87.0878 30.656 86.1918 29.744ZM103.417 28.192C103.417 30.224 102.361 31.168 100.825 31.168C99.4333 31.168 98.6493 30.336 98.6493 28.912V24H97.5933V28.912C97.5933 30.912 98.7933 32.192 100.729 32.192C101.929 32.192 102.825 31.712 103.417 30.752V32H104.473V24H103.417V28.192ZM108.403 24H107.347V32H108.403V27.552C108.403 25.712 109.475 24.896 110.931 24.896V23.872C109.731 23.872 108.899 24.352 108.403 25.328V24ZM117.818 20.8V32H118.938V27.84H121.818C122.826 27.84 123.658 27.504 124.33 26.832C125.002 26.16 125.338 25.328 125.338 24.32C125.338 23.312 125.002 22.48 124.33 21.808C123.658 21.136 122.826 20.8 121.818 20.8H117.818ZM118.938 26.784V21.856H121.818C122.506 21.856 123.082 22.096 123.53 22.56C123.994 23.024 124.218 23.6 124.218 24.32C124.218 25.04 123.994 25.632 123.53 26.096C123.082 26.56 122.506 26.784 121.818 26.784H118.938ZM128.636 24H127.58V32H128.636V27.552C128.636 25.712 129.708 24.896 131.164 24.896V23.872C129.964 23.872 129.132 24.352 128.636 25.328V24ZM139.471 30.992C140.287 30.176 140.703 29.184 140.703 28C140.703 26.816 140.287 25.824 139.471 25.024C138.655 24.208 137.663 23.808 136.495 23.808C135.327 23.808 134.319 24.208 133.503 25.024C132.687 25.824 132.287 26.816 132.287 28C132.287 29.184 132.687 30.176 133.503 30.992C134.319 31.792 135.327 32.192 136.495 32.192C137.663 32.192 138.655 31.792 139.471 30.992ZM134.255 30.256C133.647 29.632 133.343 28.88 133.343 28C133.343 27.12 133.647 26.368 134.255 25.76C134.863 25.136 135.615 24.832 136.495 24.832C137.375 24.832 138.127 25.136 138.735 25.76C139.343 26.368 139.647 27.12 139.647 28C139.647 28.88 139.343 29.632 138.735 30.256C138.127 30.864 137.375 31.168 136.495 31.168C135.615 31.168 134.863 30.864 134.255 30.256ZM143.243 20.992C142.939 21.296 142.939 21.776 143.243 22.08C143.547 22.384 144.027 22.384 144.331 22.08C144.635 21.776 144.635 21.296 144.331 20.992C144.027 20.688 143.547 20.688 143.243 20.992ZM143.259 32.64C143.259 34 142.699 34.496 141.435 34.368V35.392C143.275 35.568 144.315 34.56 144.315 32.64V24H143.259V32.64ZM150.899 23.808C149.667 23.808 148.675 24.208 147.891 25.008C147.107 25.808 146.723 26.8 146.723 28C146.723 29.216 147.123 30.224 147.907 31.008C148.691 31.792 149.715 32.192 150.979 32.192C152.531 32.192 153.795 31.488 154.499 30.352L153.571 29.808C153.123 30.624 152.211 31.168 150.995 31.168C149.283 31.168 148.019 30.144 147.811 28.528H154.835C154.851 28.32 154.867 28.144 154.867 28.032C154.867 26.896 154.499 25.904 153.763 25.072C153.043 24.224 152.083 23.808 150.899 23.808ZM150.899 24.832C151.619 24.832 152.259 25.072 152.803 25.536C153.347 26 153.667 26.656 153.779 27.504H147.811C148.019 25.92 149.235 24.832 150.899 24.832ZM160.915 32.192C162.467 32.192 163.843 31.392 164.499 30.112L163.619 29.6C163.091 30.56 162.115 31.168 160.915 31.168C160.035 31.168 159.283 30.864 158.675 30.256C158.067 29.632 157.763 28.88 157.763 28C157.763 27.12 158.067 26.368 158.675 25.76C159.283 25.136 160.035 24.832 160.915 24.832C162.115 24.832 163.123 25.44 163.555 26.4L164.419 25.904C163.843 24.624 162.499 23.808 160.915 23.808C159.715 23.808 158.707 24.208 157.907 25.024C157.107 25.824 156.707 26.816 156.707 28C156.707 29.184 157.107 30.176 157.907 30.992C158.707 31.792 159.715 32.192 160.915 32.192ZM170.895 24H168.591V21.76L167.535 22.08V24H165.855V25.024H167.535V29.872C167.535 31.728 168.655 32.336 170.895 32V31.072C169.359 31.136 168.591 31.248 168.591 29.872V25.024H170.895V24Z" fill="white"/>
</svg>
